<mxfile host="app.diagrams.net" modified="2023-11-22T01:40:56.142Z" agent="Mozilla/5.0 (Windows NT 10.0; Win64; x64) AppleWebKit/537.36 (KHTML, like Gecko) Chrome/119.0.0.0 Safari/537.36" etag="bqzxiBzl5klTKSZSj6mI" version="22.1.3" type="device">
  <diagram id="rXO1-PHmHEGK-uwkWSwN" name="Page-1">
    <mxGraphModel dx="1232" dy="1132" grid="1" gridSize="10" guides="1" tooltips="1" connect="1" arrows="1" fold="1" page="1" pageScale="1" pageWidth="850" pageHeight="1100" math="0" shadow="0">
      <root>
        <mxCell id="0" />
        <mxCell id="1" parent="0" />
        <mxCell id="51ZkBqOI2KHY6uZn7XRc-2" value="&lt;font style=&quot;font-size: 17px;&quot;&gt;Proposal PDF&lt;/font&gt;" style="rounded=1;whiteSpace=wrap;html=1;fillColor=#dae8fc;strokeColor=#6c8ebf;" parent="1" vertex="1">
          <mxGeometry x="355" y="60" width="320" height="60" as="geometry" />
        </mxCell>
        <mxCell id="51ZkBqOI2KHY6uZn7XRc-4" value="" style="ellipse;whiteSpace=wrap;html=1;fillColor=#cce5ff;strokeColor=#36393d;" parent="1" vertex="1">
          <mxGeometry x="360" y="190" width="40" height="40" as="geometry" />
        </mxCell>
        <mxCell id="51ZkBqOI2KHY6uZn7XRc-5" value="" style="shape=flexArrow;endArrow=classic;html=1;rounded=0;strokeColor=#949494;fillColor=#949494;" parent="1" edge="1">
          <mxGeometry width="50" height="50" relative="1" as="geometry">
            <mxPoint x="514.8" y="130" as="sourcePoint" />
            <mxPoint x="514.8" y="180" as="targetPoint" />
          </mxGeometry>
        </mxCell>
        <mxCell id="51ZkBqOI2KHY6uZn7XRc-6" value="" style="ellipse;whiteSpace=wrap;html=1;fillColor=#cce5ff;strokeColor=#36393d;" parent="1" vertex="1">
          <mxGeometry x="425" y="190" width="40" height="40" as="geometry" />
        </mxCell>
        <mxCell id="51ZkBqOI2KHY6uZn7XRc-7" value="" style="ellipse;whiteSpace=wrap;html=1;fillColor=#cce5ff;strokeColor=#36393d;" parent="1" vertex="1">
          <mxGeometry x="630" y="190" width="40" height="40" as="geometry" />
        </mxCell>
        <mxCell id="51ZkBqOI2KHY6uZn7XRc-8" value="" style="ellipse;whiteSpace=wrap;html=1;fillColor=#cce5ff;strokeColor=#36393d;" parent="1" vertex="1">
          <mxGeometry x="560" y="190" width="40" height="40" as="geometry" />
        </mxCell>
        <mxCell id="51ZkBqOI2KHY6uZn7XRc-10" value="&lt;font style=&quot;font-size: 17px;&quot; color=&quot;#000000&quot;&gt;Target Function&lt;/font&gt;" style="rounded=1;whiteSpace=wrap;html=1;fillColor=#1ba1e2;strokeColor=#006EAF;fontColor=#ffffff;" parent="1" vertex="1">
          <mxGeometry x="120" y="300" width="120" height="60" as="geometry" />
        </mxCell>
        <mxCell id="51ZkBqOI2KHY6uZn7XRc-13" value="&lt;span style=&quot;font-size: 17px;&quot;&gt;Picking a target sample from proposal sample set&lt;/span&gt;" style="shape=parallelogram;perimeter=parallelogramPerimeter;whiteSpace=wrap;html=1;fixedSize=1;fontColor=#000000;fillColor=#e3c800;strokeColor=#B09500;" parent="1" vertex="1">
          <mxGeometry x="350" y="300" width="790" height="60" as="geometry" />
        </mxCell>
        <mxCell id="51ZkBqOI2KHY6uZn7XRc-15" value="" style="shape=flexArrow;endArrow=classic;html=1;rounded=0;fontColor=#000000;strokeColor=#949494;fillColor=#949494;fillStyle=solid;gradientColor=none;" parent="1" edge="1">
          <mxGeometry width="50" height="50" relative="1" as="geometry">
            <mxPoint x="260" y="329.5" as="sourcePoint" />
            <mxPoint x="320" y="329.5" as="targetPoint" />
          </mxGeometry>
        </mxCell>
        <mxCell id="51ZkBqOI2KHY6uZn7XRc-16" value="" style="ellipse;whiteSpace=wrap;html=1;fillColor=#e3c800;strokeColor=#B09500;fontColor=#000000;" parent="1" vertex="1">
          <mxGeometry x="705" y="430" width="40" height="40" as="geometry" />
        </mxCell>
        <mxCell id="51ZkBqOI2KHY6uZn7XRc-23" value="&lt;font style=&quot;font-size: 17px;&quot;&gt;RIS Estimator&lt;/font&gt;" style="shape=hexagon;perimeter=hexagonPerimeter2;whiteSpace=wrap;html=1;fixedSize=1;fillColor=#e1d5e7;strokeColor=#9673a6;" parent="1" vertex="1">
          <mxGeometry x="550" y="540" width="350" height="50" as="geometry" />
        </mxCell>
        <mxCell id="51ZkBqOI2KHY6uZn7XRc-26" value="" style="ellipse;whiteSpace=wrap;html=1;fillColor=#949494;strokeColor=none;" parent="1" vertex="1">
          <mxGeometry x="490" y="205" width="10" height="10" as="geometry" />
        </mxCell>
        <mxCell id="51ZkBqOI2KHY6uZn7XRc-27" value="" style="ellipse;whiteSpace=wrap;html=1;fillColor=#949494;strokeColor=none;" parent="1" vertex="1">
          <mxGeometry x="510" y="205" width="10" height="10" as="geometry" />
        </mxCell>
        <mxCell id="51ZkBqOI2KHY6uZn7XRc-28" value="" style="ellipse;whiteSpace=wrap;html=1;fillColor=#949494;strokeColor=none;" parent="1" vertex="1">
          <mxGeometry x="530" y="205" width="10" height="10" as="geometry" />
        </mxCell>
        <mxCell id="51ZkBqOI2KHY6uZn7XRc-33" value="" style="shape=flexArrow;endArrow=classic;html=1;rounded=0;strokeColor=#949494;fillColor=#949494;" parent="1" edge="1">
          <mxGeometry width="50" height="50" relative="1" as="geometry">
            <mxPoint x="514.88" y="240" as="sourcePoint" />
            <mxPoint x="514.88" y="290" as="targetPoint" />
          </mxGeometry>
        </mxCell>
        <mxCell id="51ZkBqOI2KHY6uZn7XRc-34" value="" style="shape=flexArrow;endArrow=classic;html=1;rounded=0;strokeColor=#949494;fillColor=#949494;" parent="1" edge="1">
          <mxGeometry width="50" height="50" relative="1" as="geometry">
            <mxPoint x="724.9" y="370" as="sourcePoint" />
            <mxPoint x="724.9" y="420" as="targetPoint" />
          </mxGeometry>
        </mxCell>
        <mxCell id="51ZkBqOI2KHY6uZn7XRc-35" value="" style="shape=flexArrow;endArrow=classic;html=1;rounded=0;strokeColor=#949494;fillColor=#949494;" parent="1" edge="1">
          <mxGeometry width="50" height="50" relative="1" as="geometry">
            <mxPoint x="724.6400000000001" y="480.0000000000001" as="sourcePoint" />
            <mxPoint x="724.6400000000001" y="530.0000000000001" as="targetPoint" />
          </mxGeometry>
        </mxCell>
        <mxCell id="x3OkJlkdDwopcLgkQX7s-1" value="&lt;font style=&quot;font-size: 17px;&quot;&gt;Proposal PDF&lt;/font&gt;" style="rounded=1;whiteSpace=wrap;html=1;fillColor=#b0e3e6;strokeColor=#0e8088;" parent="1" vertex="1">
          <mxGeometry x="770" y="60" width="320" height="60" as="geometry" />
        </mxCell>
        <mxCell id="x3OkJlkdDwopcLgkQX7s-2" value="" style="ellipse;whiteSpace=wrap;html=1;fillColor=#b0e3e6;strokeColor=#0e8088;" parent="1" vertex="1">
          <mxGeometry x="775" y="190" width="40" height="40" as="geometry" />
        </mxCell>
        <mxCell id="x3OkJlkdDwopcLgkQX7s-3" value="" style="shape=flexArrow;endArrow=classic;html=1;rounded=0;strokeColor=#949494;fillColor=#949494;" parent="1" edge="1">
          <mxGeometry width="50" height="50" relative="1" as="geometry">
            <mxPoint x="929.8" y="130" as="sourcePoint" />
            <mxPoint x="929.8" y="180" as="targetPoint" />
          </mxGeometry>
        </mxCell>
        <mxCell id="x3OkJlkdDwopcLgkQX7s-4" value="" style="ellipse;whiteSpace=wrap;html=1;fillColor=#b0e3e6;strokeColor=#0e8088;" parent="1" vertex="1">
          <mxGeometry x="840" y="190" width="40" height="40" as="geometry" />
        </mxCell>
        <mxCell id="x3OkJlkdDwopcLgkQX7s-5" value="" style="ellipse;whiteSpace=wrap;html=1;fillColor=#b0e3e6;strokeColor=#0e8088;" parent="1" vertex="1">
          <mxGeometry x="1045" y="190" width="40" height="40" as="geometry" />
        </mxCell>
        <mxCell id="x3OkJlkdDwopcLgkQX7s-6" value="" style="ellipse;whiteSpace=wrap;html=1;fillColor=#b0e3e6;strokeColor=#0e8088;" parent="1" vertex="1">
          <mxGeometry x="975" y="190" width="40" height="40" as="geometry" />
        </mxCell>
        <mxCell id="x3OkJlkdDwopcLgkQX7s-7" value="" style="ellipse;whiteSpace=wrap;html=1;fillColor=#949494;strokeColor=none;" parent="1" vertex="1">
          <mxGeometry x="905" y="205" width="10" height="10" as="geometry" />
        </mxCell>
        <mxCell id="x3OkJlkdDwopcLgkQX7s-8" value="" style="ellipse;whiteSpace=wrap;html=1;fillColor=#949494;strokeColor=none;" parent="1" vertex="1">
          <mxGeometry x="925" y="205" width="10" height="10" as="geometry" />
        </mxCell>
        <mxCell id="x3OkJlkdDwopcLgkQX7s-9" value="" style="ellipse;whiteSpace=wrap;html=1;fillColor=#949494;strokeColor=none;" parent="1" vertex="1">
          <mxGeometry x="945" y="205" width="10" height="10" as="geometry" />
        </mxCell>
        <mxCell id="x3OkJlkdDwopcLgkQX7s-10" value="" style="shape=flexArrow;endArrow=classic;html=1;rounded=0;strokeColor=#949494;fillColor=#949494;" parent="1" edge="1">
          <mxGeometry width="50" height="50" relative="1" as="geometry">
            <mxPoint x="929.5000000000002" y="240" as="sourcePoint" />
            <mxPoint x="929.5000000000002" y="290" as="targetPoint" />
          </mxGeometry>
        </mxCell>
      </root>
    </mxGraphModel>
  </diagram>
</mxfile>
